<?xml version="1.0" encoding="UTF-8" standalone="no"?><!DOCTYPE svg PUBLIC "-//W3C//DTD SVG 1.1//EN" "http://www.w3.org/Graphics/SVG/1.1/DTD/svg11.dtd"><svg width="100%" height="100%" viewBox="0 0 2250 2250" version="1.1" xmlns="http://www.w3.org/2000/svg" xmlns:xlink="http://www.w3.org/1999/xlink" xml:space="preserve" xmlns:serif="http://www.serif.com/" style="fill-rule:evenodd;clip-rule:evenodd;stroke-linejoin:round;stroke-miterlimit:2;"><circle cx="1125" cy="1125" r="1041.67" style="fill:#fff;"/><circle cx="1125" cy="1125" r="989.583" style="fill:#fff;"/><path d="M2114.58,1125l-791.666,0c-0,-35.914 -9.772,-71.151 -28.269,-101.935l678.59,-407.738c92.485,153.92 141.345,330.105 141.345,509.673Z" style="fill:#e9611f;"/><path d="M1982,630.208l-685.603,395.834c-17.957,-31.103 -44.038,-56.733 -75.449,-74.144l383.808,-692.407c157.054,87.056 287.46,215.206 377.244,370.717Z" style="fill:#f4901e;"/><path d="M1619.79,267.996l-395.834,685.603c-30.087,-17.371 -64.216,-26.516 -98.958,-26.516c-1.151,0 -2.303,0.01 -3.454,0.03l-13.817,-791.546c5.757,-0.1 11.514,-0.15 17.271,-0.15c173.708,-0 344.356,45.725 494.792,132.579Z" style="fill:#fec60a;"/><path d="M1125,135.417l-0,791.666c-35.914,0 -71.151,9.772 -101.935,28.269l-407.738,-678.59c153.92,-92.485 330.105,-141.345 509.673,-141.345Z" style="fill:#f3e302;"/><path d="M630.208,267.996l395.834,685.603c-31.103,17.957 -56.733,44.038 -74.144,75.449l-692.407,-383.807c87.056,-157.055 215.206,-287.461 370.717,-377.245Z" style="fill:#8eba25;"/><path d="M267.996,630.208l685.603,395.834c-17.371,30.087 -26.516,64.216 -26.516,98.958c0,1.151 0.01,2.303 0.03,3.454l-791.546,13.817c-0.1,-5.757 -0.15,-11.514 -0.15,-17.271c-0,-173.708 45.725,-344.356 132.579,-494.792Z" style="fill:#068e5b;"/><path d="M135.417,1125l791.666,0c0,35.914 9.772,71.151 28.269,101.935l-678.59,407.738c-92.485,-153.92 -141.345,-330.104 -141.345,-509.673Z" style="fill:#0597bc;"/><path d="M267.996,1619.79l685.603,-395.834c17.957,31.103 44.038,56.733 75.449,74.144l-383.807,692.407c-157.055,-87.056 -287.461,-215.206 -377.245,-370.717Z" style="fill:#2575a6;"/><path d="M630.208,1982l395.834,-685.603c30.087,17.371 64.216,26.516 98.958,26.516c1.151,-0 2.303,-0.01 3.454,-0.03l13.817,791.546c-5.757,0.1 -11.514,0.15 -17.271,0.15c-173.708,0 -344.356,-45.725 -494.792,-132.579Z" style="fill:#454e98;"/><path d="M1125,2114.58l0,-791.666c35.914,-0 71.151,-9.772 101.935,-28.269l407.738,678.591c-153.92,92.484 -330.105,141.344 -509.673,141.344Z" style="fill:#6f3b8c;"/><path d="M1619.79,1982l-395.834,-685.603c31.102,-17.957 56.732,-44.038 74.144,-75.449l692.407,383.808c-87.057,157.054 -215.207,287.46 -370.717,377.244Z" style="fill:#c5027d;"/><path d="M1982,1619.79l-685.603,-395.834c17.371,-30.087 26.516,-64.216 26.516,-98.958c-0,-1.151 -0.01,-2.303 -0.03,-3.454l791.546,-13.816c0.1,5.756 0.15,11.513 0.15,17.27c0,173.708 -45.725,344.356 -132.579,494.792Z" style="fill:#e32323;"/></svg>